<svg width="110" height="106" viewBox="0 0 110 106" fill="none" xmlns="http://www.w3.org/2000/svg">
<path opacity="0.3" d="M33.0338 1L1.0481 104.76H84.0111L109 52.8798L84.0111 1H33.0338Z" stroke="black" stroke-width="0.5"/>
<path d="M49.0996 32.7815H47.1538C46.7601 31.3664 45.4605 30.3236 43.9201 30.3172V28.2254C43.9201 26.4469 42.4703 25 40.688 25H11.588C9.80569 25 8.35575 26.4468 8.35575 28.2254V30.3172C6.50406 30.3249 5 31.8304 5 33.68C5 35.5296 6.50406 37.0351 8.35575 37.0427V38.4247C8.35575 40.2032 9.80569 41.6501 11.5879 41.6501H18.1812C18.1883 41.6501 18.1952 41.65 18.2021 41.6498C18.7274 42.0683 19.3928 42.3187 20.1157 42.3187C20.6104 42.3187 21.0782 42.2014 21.4926 41.9932C21.8451 43.2985 23.0417 44.262 24.4595 44.262C25.999 44.262 27.2776 43.1261 27.4981 41.6501H30.3626C30.8598 41.6501 31.263 41.2479 31.263 40.7517C31.263 40.2555 30.8598 39.8532 30.3626 39.8532H27.5318V26.7969H40.6881C41.4774 26.7969 42.1195 27.4377 42.1195 28.2254V38.4247C42.1195 39.2124 41.4773 39.8532 40.6881 39.8532H38.2277C37.7306 39.8532 37.3274 40.2555 37.3274 40.7517C37.3274 41.2479 37.7306 41.6501 38.2277 41.6501H40.6881C42.4703 41.6501 43.9202 40.2033 43.9202 38.4247V37.0427C45.4605 37.0364 46.7602 35.9936 47.1539 34.5784H48.1994V42.2535C48.1994 43.5907 47.1092 44.6787 45.7692 44.6787H26.0673C25.5701 44.6787 25.1669 45.081 25.1669 45.5772V50.1441H23.9928C23.598 50.1441 23.2493 50.4007 23.1326 50.7771L21.6638 55.5167C21.6444 55.5752 21.6308 55.6364 21.6239 55.6995C21.6238 55.7004 21.6236 55.7014 21.6235 55.7023C21.6231 55.7055 21.6228 55.7087 21.6225 55.7119C21.622 55.7174 21.6215 55.723 21.6211 55.7284C21.621 55.7299 21.6209 55.7313 21.6208 55.7327C21.6204 55.7392 21.6199 55.7459 21.6195 55.7524V55.7528C21.6186 55.7707 21.6182 55.7885 21.6184 55.8063V66.5604C21.6184 69.0083 23.6141 71 26.0673 71C28.5204 71 30.5161 69.0083 30.5161 66.5604V55.8063C30.5163 55.7886 30.5159 55.7707 30.515 55.7528C30.515 55.7527 30.515 55.7526 30.515 55.7525C30.5146 55.7458 30.5141 55.7391 30.5137 55.7325C30.5136 55.7311 30.5135 55.7298 30.5134 55.7284C30.513 55.7229 30.5125 55.7174 30.512 55.7118C30.5117 55.7086 30.5114 55.7054 30.511 55.7022C30.5109 55.7012 30.5107 55.7003 30.5106 55.6994C30.5037 55.6363 30.4901 55.5751 30.4707 55.5166L29.0019 50.777C28.8852 50.4006 28.5365 50.144 28.1417 50.144H26.9676V46.4755H45.7691C48.102 46.4755 50 44.5815 50 42.2534V33.68C50 33.1838 49.5969 32.7815 49.0996 32.7815ZM6.80073 33.68C6.80073 32.8212 7.49698 32.1216 8.35584 32.1141V35.2459C7.49698 35.2382 6.80073 34.5387 6.80073 33.68ZM10.1565 38.4247V38.1192C10.5442 38.2957 10.9747 38.3942 11.428 38.3942C12.5942 38.3942 13.6107 37.7424 14.1309 36.7847C14.6059 37.0853 15.1688 37.2595 15.7718 37.2595C16.225 37.2595 16.6556 37.1611 17.0434 36.9844V39.2529C17.0434 39.4583 17.0638 39.659 17.1025 39.8531H11.588C10.7986 39.8532 10.1565 39.2124 10.1565 38.4247ZM25.731 41.1961C25.731 41.8958 25.1605 42.4651 24.4594 42.4651C23.7583 42.4651 23.1879 41.8958 23.1879 41.1961V34.9917C23.1879 34.4955 22.7847 34.0933 22.2875 34.0933C21.7903 34.0933 21.3872 34.4955 21.3872 34.9917V39.253C21.3872 39.9527 20.8167 40.5219 20.1156 40.5219C19.4145 40.5219 18.8441 39.9527 18.8441 39.253V34.1937C18.8441 33.6975 18.4409 33.2953 17.9437 33.2953C17.4464 33.2953 17.0434 33.6975 17.0434 34.1937C17.0434 34.8934 16.4729 35.4627 15.7718 35.4627C15.0707 35.4627 14.5003 34.8934 14.5003 34.1937C14.5003 33.6975 14.0971 33.2953 13.5999 33.2953C13.1027 33.2953 12.6996 33.6975 12.6996 34.1937V35.3283C12.6996 36.0281 12.1291 36.5973 11.428 36.5973C10.7269 36.5973 10.1565 36.0281 10.1565 35.3283V28.2254C10.1565 27.4377 10.7986 26.7969 11.5879 26.7969H25.731V41.1961ZM43.9202 35.2458V32.1141C44.779 32.1216 45.4753 32.8213 45.4753 33.68C45.4753 34.5387 44.779 35.2382 43.9202 35.2458ZM28.7154 66.5604C28.7154 68.0176 27.5275 69.2031 26.0673 69.2031C24.607 69.2031 23.4191 68.0176 23.4191 66.5604V56.6974H28.7154V66.5604ZM28.395 54.9005H23.7396L24.6569 51.9409H27.4778L28.395 54.9005Z" fill="black"/>
<path d="M34.3626 41.6498C33.6559 41.662 33.2138 40.8326 33.6135 40.2528C33.9952 39.6613 34.9366 39.7517 35.1937 40.4082C35.4496 40.9722 34.9827 41.6692 34.3626 41.6498Z" fill="black"/>
<path d="M26.0673 67.2583C25.5701 67.2583 25.1669 66.856 25.1669 66.3598V64.6557C25.1669 64.1595 25.5701 63.7572 26.0673 63.7572C26.5645 63.7572 26.9676 64.1595 26.9676 64.6557V66.3598C26.9676 66.856 26.5644 67.2583 26.0673 67.2583Z" fill="black"/>
</svg>
