<svg width="110" height="106" viewBox="0 0 110 106" fill="none" xmlns="http://www.w3.org/2000/svg">
<path opacity="0.3" d="M33.0338 1L1.0481 104.76H84.0111L109 52.8798L84.0111 1H33.0338Z" stroke="black" stroke-width="0.5"/>
<path d="M42.6793 66.2458H38.8252V62.6753C38.8252 62.4829 38.7484 62.2984 38.6118 62.1624C38.4752 62.0264 38.2898 61.95 38.0966 61.95H34.0448V58.6584C37.8087 57.4258 41.1929 55.2542 43.8751 52.3506C46.5572 49.447 48.4479 45.908 49.367 42.0709C50.2861 38.2337 50.2031 34.2262 49.1258 30.4301C48.0484 26.634 46.0127 23.1757 43.2126 20.3847L42.0353 19.2126C41.9677 19.1452 41.8874 19.0917 41.799 19.0553C41.7107 19.0188 41.616 19 41.5203 19C41.4246 19 41.3299 19.0188 41.2416 19.0553C41.1532 19.0917 41.0729 19.1452 41.0053 19.2126L35.7941 24.4007C32.8475 22.2696 29.2339 21.255 25.6031 21.5397C21.9723 21.8243 18.5626 23.3893 15.9874 25.9533C13.4123 28.5173 11.8405 31.9119 11.555 35.5266C11.2695 39.1413 12.2889 42.7388 14.4298 45.672L9.21354 50.8634C9.14585 50.9307 9.09214 51.0106 9.0555 51.0986C9.01886 51.1865 9 51.2808 9 51.3761C9 51.4713 9.01886 51.5656 9.0555 51.6536C9.09214 51.7416 9.14585 51.8215 9.21354 51.8888L10.3917 53.06C14.2914 56.9433 19.4562 59.3119 24.9552 59.7389V61.9504H20.9021C20.7089 61.9504 20.5236 62.0268 20.3869 62.1628C20.2503 62.2988 20.1735 62.4833 20.1735 62.6757V66.2458H16.3202C15.6856 66.2465 15.0772 66.4979 14.6285 66.9446C14.1797 67.3914 13.9273 67.9971 13.9265 68.6289V71.2747C13.9265 71.4671 14.0033 71.6515 14.1399 71.7876C14.2765 71.9236 14.4618 72 14.655 72H44.3445C44.5377 72 44.723 71.9236 44.8597 71.7876C44.9963 71.6515 45.073 71.4671 45.073 71.2747V68.6289C45.0723 67.9971 44.8198 67.3914 44.3711 66.9446C43.9223 66.4979 43.3139 66.2465 42.6793 66.2458ZM24.9623 54.9594C21.5469 54.6333 18.2934 53.3534 15.5767 51.2671L17.816 49.0398C20.0973 50.693 22.7936 51.6854 25.6064 51.9071C28.4192 52.1289 31.2388 51.5713 33.7529 50.2962C36.2671 49.021 38.3777 47.078 39.8512 44.6824C41.3246 42.2867 42.1033 39.5318 42.101 36.7227C42.0947 33.5073 41.0723 30.3754 39.1786 27.7706L41.4104 25.5483C44.1097 29.088 45.4358 33.4783 45.1452 37.9131C44.8546 42.3479 42.9668 46.5295 39.8284 49.6901C38.0573 51.4562 35.9387 52.8389 33.6056 53.7517C33.3851 53.4396 33.0925 53.1847 32.7524 53.0087C32.4123 52.8327 32.0347 52.7407 31.6514 52.7405H27.3489C26.7429 52.7411 26.1597 52.9704 25.7168 53.3822C25.2739 53.794 25.0043 54.3576 24.9623 54.9594ZM14.6484 43.3133C13.6475 41.4892 13.0754 39.4628 12.9753 37.3867C13.0192 37.3854 13.063 37.38 13.106 37.3705L13.6617 37.2495L15.4893 38.7046C15.5676 38.7675 15.6582 38.8134 15.7554 38.8393C15.8525 38.8653 15.954 38.8708 16.0534 38.8555L18.403 38.5007L19.6902 40.1395L19.6707 42.3949L16.7261 42.7377C16.6308 42.7488 16.5386 42.7785 16.4548 42.8251C16.371 42.8718 16.2972 42.9345 16.2378 43.0096L15.2354 44.279C15.0285 43.9678 14.8311 43.6453 14.6496 43.315L14.6484 43.3133ZM32.9286 31.3108L35.7179 33.1054L36.0884 35.1876L34.1209 37.1492C33.9843 37.2852 33.9075 37.4696 33.9074 37.6619V40.1672L32.7055 41.3625C32.5689 41.4985 32.492 41.6829 32.4919 41.8752V43.3527L30.1519 45.6828L28.4813 44.0192V40.2087C28.4813 40.0162 28.4044 39.8317 28.2677 39.6956L25.031 36.4732C24.8943 36.3372 24.7089 36.2607 24.5156 36.2606H22.064L20.3326 34.5369V30.9349L23.2138 28.0686L25.0843 27.335L26.2345 28.4806C26.3519 28.5967 26.5054 28.6697 26.67 28.6878L31.5382 29.222C31.6691 29.2363 31.8015 29.215 31.9212 29.1603L34.807 27.844C34.936 27.7852 35.0449 27.6903 35.1205 27.5708C35.196 27.4513 35.2349 27.3125 35.2323 27.1713C35.2298 27.0301 35.1859 26.8928 35.106 26.7761C35.0262 26.6594 34.9139 26.5685 34.7829 26.5144L30.0116 24.5458C29.9817 24.5337 29.9512 24.5234 29.92 24.5151L24.6184 23.1142C27.4157 22.6914 30.2759 23.1229 32.8217 24.352C35.3675 25.581 37.479 27.5498 38.8776 29.9983L36.5929 28.7839C36.4957 28.7322 36.3879 28.7032 36.2777 28.699C36.1675 28.6949 36.0578 28.7157 35.9568 28.7599L33.0323 30.0393C32.912 30.0921 32.8082 30.1763 32.732 30.283C32.6558 30.3897 32.6101 30.515 32.5996 30.6455C32.5891 30.776 32.6142 30.9069 32.6724 31.0243C32.7305 31.1417 32.8195 31.2413 32.9299 31.3125L32.9286 31.3108ZM36.9576 25.2918L41.5203 20.7494L42.1826 21.4088C44.7822 23.995 46.6809 27.1949 47.7013 30.7098C48.7218 34.2246 48.8307 37.9396 48.018 41.5077C47.2052 45.0758 45.4972 48.3806 43.0536 51.1133C40.6101 53.8461 37.5106 55.9176 34.0448 57.1345V55.1451C36.6012 54.1583 38.922 52.6498 40.858 50.7167C44.3494 47.2022 46.4028 42.5204 46.619 37.582C46.8351 32.6437 45.1985 27.8018 42.0274 23.9983C41.9624 23.9212 41.8821 23.8585 41.7916 23.8141C41.701 23.7696 41.6021 23.7444 41.5012 23.74C41.4003 23.7357 41.2996 23.7522 41.2055 23.7887C41.1114 23.8252 41.0259 23.8807 40.9545 23.9518L38.284 26.6122L36.9576 25.2918ZM22.4703 23.634V23.6418C22.4995 23.7713 22.5638 23.8904 22.6562 23.986C22.7486 24.0817 22.8656 24.1503 22.9944 24.1844L29.5 25.906L32.6814 27.2185L31.497 27.7573L27.0842 27.2728L25.777 25.9715C25.6767 25.8714 25.5492 25.8028 25.4102 25.774C25.2712 25.7452 25.1268 25.7575 24.9947 25.8094L22.5386 26.7726C22.4457 26.8091 22.3614 26.8643 22.2909 26.9346L19.0907 30.1201C18.9541 30.2561 18.8773 30.4405 18.8772 30.6328V34.8378C18.8773 35.0301 18.9541 35.2146 19.0907 35.3505L21.2489 37.4986C21.3164 37.566 21.3967 37.6195 21.4851 37.656C21.5734 37.6925 21.6682 37.7113 21.7638 37.7112H24.2129L27.023 40.5092V44.3221C27.0229 44.4173 27.0418 44.5116 27.0783 44.5996C27.1149 44.6875 27.1685 44.7675 27.2361 44.8348L29.6357 47.2241C29.7033 47.2915 29.7836 47.345 29.872 47.3815C29.9604 47.418 30.0552 47.4367 30.1509 47.4367C30.2466 47.4367 30.3413 47.418 30.4297 47.3815C30.5181 47.345 30.5984 47.2915 30.666 47.2241L33.7359 44.1679C33.8041 44.1003 33.8582 44.0199 33.895 43.9313C33.9318 43.8428 33.9506 43.7478 33.9503 43.652V42.1757L35.1505 40.9804C35.2871 40.8445 35.3639 40.66 35.364 40.4677V37.9624L37.3877 35.9477C37.4707 35.8653 37.5324 35.764 37.5677 35.6527C37.6029 35.5413 37.6105 35.4232 37.59 35.3082L37.0971 32.5447C37.0798 32.4465 37.0423 32.3531 36.987 32.27C36.9317 32.187 36.8598 32.1163 36.7757 32.0622L34.857 30.8276L36.2191 30.2316L38.2149 31.2926L39.9816 32.5177C40.9645 35.5674 40.8493 38.8627 39.6559 41.8369C38.4624 44.8111 36.2652 47.2784 33.4422 48.8144C30.6193 50.3504 27.3469 50.8591 24.1879 50.2531C21.029 49.6471 18.1808 47.9642 16.1333 45.4938L17.1974 44.1468L20.4791 43.7647C20.6554 43.7442 20.8181 43.6603 20.9367 43.5288C21.0553 43.3974 21.1216 43.2273 21.1231 43.0506L21.1506 39.9008C21.1518 39.7368 21.0974 39.5772 20.9962 39.4478L19.2893 37.2752C19.21 37.1735 19.1047 37.0949 18.9845 37.0474C18.8643 36.9998 18.7335 36.9852 18.6058 37.005L16.1496 37.3755L14.2995 35.9025C14.2148 35.835 14.116 35.7872 14.0103 35.7627C13.9046 35.7382 13.7948 35.7375 13.6888 35.7608L13.0918 35.8905L12.9902 35.8246C13.1739 33.085 14.174 30.4622 15.8626 28.2913C17.5512 26.1204 19.8516 24.5 22.4699 23.6373L22.4703 23.634ZM11.4208 52.0355L10.7584 51.3761L15.3211 46.8333L16.6462 48.1521L13.974 50.8124C13.9026 50.8835 13.8468 50.9686 13.8101 51.0622C13.7735 51.1559 13.7568 51.2561 13.7612 51.3566C13.7655 51.457 13.7908 51.5554 13.8354 51.6456C13.88 51.7358 13.9429 51.8158 14.0202 51.8805C17.1102 54.4756 20.9285 56.0597 24.9552 56.4171V58.2895C19.8428 57.864 15.0473 55.6481 11.4208 52.0355ZM26.4123 55.1256C26.4126 54.8784 26.5114 54.6414 26.687 54.4666C26.8626 54.2918 27.1006 54.1934 27.3489 54.1931H31.651C31.8981 54.1974 32.1339 54.297 32.3086 54.4709C32.4834 54.6449 32.5834 54.8796 32.5877 55.1256V61.9504H26.4123V55.1256ZM21.6319 63.401H37.3681V66.2458H21.6319V63.401ZM43.616 70.5498H15.3836V68.6293C15.3839 68.382 15.4827 68.1451 15.6583 67.9702C15.8339 67.7954 16.0719 67.6971 16.3202 67.6968H42.6793C42.9276 67.6971 43.1657 67.7954 43.3413 67.9702C43.5169 68.1451 43.6156 68.382 43.616 68.6293V70.5498Z" fill="black"/>
<path d="M29.5 56.2069C29.4043 56.2069 29.3095 56.2256 29.2211 56.262C29.1327 56.2985 29.0524 56.3519 28.9847 56.4192C28.917 56.4866 28.8634 56.5666 28.8268 56.6546C28.7902 56.7426 28.7714 56.837 28.7714 56.9322V59.2117C28.7714 59.4041 28.8482 59.5885 28.9848 59.7246C29.1215 59.8606 29.3068 59.937 29.5 59.937C29.6932 59.937 29.8785 59.8606 30.0151 59.7246C30.1517 59.5885 30.2285 59.4041 30.2285 59.2117V56.9322C30.2286 56.837 30.2098 56.7426 30.1732 56.6546C30.1366 56.5666 30.0829 56.4866 30.0152 56.4192C29.9476 56.3519 29.8673 56.2985 29.7788 56.262C29.6904 56.2256 29.5957 56.2069 29.5 56.2069Z" fill="black"/>
</svg>
