<svg width="110" height="106" viewBox="0 0 110 106" fill="none" xmlns="http://www.w3.org/2000/svg">
<path opacity="0.3" d="M33.0338 1L1.0481 104.76H84.0111L109 52.8798L84.0111 1H33.0338Z" stroke="black" stroke-width="0.5"/>
<path d="M32.0901 62.5888C31.638 62.5125 31.2104 62.8207 31.1352 63.2756C31.0601 63.7305 31.3658 64.1605 31.818 64.2361C38.0416 65.2765 40.8763 67.1447 40.8763 68.4402C40.8763 70.482 34.0755 73.3301 23 73.3301C18.8848 73.3301 14.9988 72.9254 11.7619 72.16C11.3158 72.0546 10.8689 72.3329 10.764 72.7817C10.659 73.2306 10.9357 73.68 11.382 73.7856C14.7415 74.5802 18.759 75 23 75C28.0762 75 32.8596 74.3916 36.469 73.287C40.4383 72.0723 42.5364 70.3961 42.5364 68.4401C42.5364 65.8312 38.7289 63.6984 32.0901 62.5888Z" fill="black"/>
<path d="M8.28036 71.0746C6.30377 70.259 5.12373 69.2741 5.12373 68.4401C5.12373 67.1446 7.95829 65.2765 14.1817 64.2361C14.6339 64.1605 14.9396 63.7305 14.8644 63.2756C14.7893 62.8207 14.3615 62.5136 13.9095 62.5888C10.9275 63.0873 8.4062 63.828 6.6182 64.7309C4.52485 65.7879 3.46357 67.0359 3.46357 68.44C3.46357 70.4665 5.74031 71.8313 7.65016 72.6194C7.75331 72.662 7.86 72.682 7.96493 72.682C8.29176 72.682 8.60154 72.4867 8.73325 72.1638C8.90723 71.7373 8.70447 71.2496 8.28036 71.0746Z" fill="black"/>
<path d="M5.85619 35.7132C5.40695 35.6209 4.96845 35.9119 4.87636 36.3637C4.62701 37.5885 4.5005 38.8489 4.5005 40.1099C4.5005 50.3615 12.7993 58.7018 22.9999 58.7018C33.2005 58.7018 41.4993 50.3615 41.4993 40.1099C41.4993 29.8582 33.2006 21.518 23 21.518C15.6599 21.518 9.00883 25.8828 6.05552 32.6379C5.87102 33.06 6.0615 33.5528 6.48118 33.7383C6.90065 33.9243 7.39051 33.7322 7.57523 33.3102C10.2635 27.1611 16.3181 23.1879 23 23.1879C32.2852 23.1879 39.8392 30.7791 39.8392 40.11C39.8392 49.4407 32.2852 57.032 23 57.032C13.7148 57.032 6.16077 49.4407 6.16077 40.11C6.16077 38.9613 6.27588 37.8136 6.50288 36.6988C6.59485 36.247 6.30532 35.8057 5.85619 35.7132Z" fill="black"/>
<path d="M15.1746 60.78L22.4133 68.0546C22.5753 68.2174 22.7876 68.2988 23 68.2988C23.2124 68.2988 23.4247 68.2174 23.5867 68.0546L30.8253 60.78C35.4915 58.9944 39.4505 55.6285 41.9867 51.2853C42.2189 50.8878 42.0866 50.376 41.6914 50.1424C41.2961 49.9088 40.7874 50.0419 40.5552 50.4395C38.1812 54.5049 34.4599 57.6441 30.0769 59.2788C29.9649 59.3205 29.8633 59.3861 29.7789 59.4711L23 66.2836L16.221 59.4711C16.1366 59.3861 16.0349 59.3205 15.923 59.2788C12.0698 57.8417 8.77232 55.2919 6.38678 51.9056C3.94878 48.4446 2.66016 44.3657 2.66016 40.1099C2.66016 28.8392 11.7846 19.6699 23 19.6699C25.8458 19.6699 28.5983 20.2487 31.1809 21.3903C31.6006 21.576 32.0904 21.3838 32.2748 20.9618C32.4593 20.5395 32.2685 20.0469 31.8488 19.8614C29.0544 18.6263 26.0772 18 23 18C10.8692 18 1 27.9186 1 40.11C1 44.7137 2.39431 49.1263 5.03231 52.8712C7.57623 56.4826 11.0805 59.2142 15.1746 60.78Z" fill="black"/>
<path d="M35.2849 21.7656C34.9046 21.5079 34.3887 21.6091 34.1326 21.9914C33.8765 22.374 33.977 22.8928 34.3573 23.1504C39.9819 26.962 43.3398 33.302 43.3398 40.1099C43.3398 42.5865 42.9042 45.0064 42.045 47.3027C41.8835 47.7342 42.1004 48.2158 42.5295 48.3782C42.6259 48.4146 42.7246 48.4319 42.8218 48.4319C43.1574 48.4319 43.4735 48.2255 43.5987 47.8908C44.5285 45.406 45 42.788 45 40.1098C45 32.7457 41.3681 25.888 35.2849 21.7656Z" fill="black"/>
<path d="M14.5112 48.8157H31.4888C31.9473 48.8157 32.3189 48.442 32.3189 47.9808V38.1829L33.2458 38.9123C33.3977 39.0318 33.5779 39.0897 33.7567 39.0897C34.0033 39.0897 34.2475 38.9797 34.4112 38.7692C34.6936 38.4059 34.63 37.8811 34.2688 37.5971L23.5114 29.1324C23.211 28.896 22.789 28.896 22.4886 29.1324L11.7312 37.5971C11.37 37.8812 11.3064 38.406 11.5888 38.7692C11.8712 39.1323 12.3929 39.1967 12.754 38.9123L13.681 38.1829V47.9808C13.6811 48.4419 14.0527 48.8157 14.5112 48.8157ZM15.3412 36.8766L23 30.85L30.6588 36.8766V47.1458H15.3412V36.8766Z" fill="black"/>
<path d="M19.1263 39.2354C18.6679 39.2354 18.2962 39.6091 18.2962 40.0704V43.4497C18.2962 43.911 18.6679 44.2847 19.1263 44.2847C19.5847 44.2847 19.9564 43.911 19.9564 43.4497V40.0704C19.9564 39.6092 19.5847 39.2354 19.1263 39.2354Z" fill="black"/>
<path d="M23 39.2354C22.5416 39.2354 22.1699 39.6091 22.1699 40.0704V43.4497C22.1699 43.911 22.5416 44.2847 23 44.2847C23.4584 44.2847 23.8301 43.911 23.8301 43.4497V40.0704C23.8301 39.6092 23.4584 39.2354 23 39.2354Z" fill="black"/>
<path d="M26.8737 39.2354C26.4153 39.2354 26.0436 39.6091 26.0436 40.0704V43.4497C26.0436 43.911 26.4153 44.2847 26.8737 44.2847C27.3321 44.2847 27.7038 43.911 27.7038 43.4497V40.0704C27.7038 39.6092 27.3321 39.2354 26.8737 39.2354Z" fill="black"/>
<path d="M23 34.2001C22.5416 34.2001 22.1699 34.5739 22.1699 35.0351V36.2622C22.1699 36.7234 22.5416 37.0971 23 37.0971C23.4584 37.0971 23.8301 36.7234 23.8301 36.2622V35.0351C23.8301 34.5739 23.4584 34.2001 23 34.2001Z" fill="black"/>
</svg>
