<svg width="110" height="106" viewBox="0 0 110 106" fill="none" xmlns="http://www.w3.org/2000/svg">
<path opacity="0.3" d="M33.0338 1L1.04807 104.76H84.0111L109 52.8798L84.0111 1H33.0338Z" stroke="black" stroke-width="0.5"/>
<path d="M44.0475 48.329L39.0974 43.0741C38.7542 42.7097 38.1976 42.7098 37.8545 43.0744C37.5113 43.439 37.5114 44.03 37.8547 44.3944L42.8039 49.6483C43.3895 50.272 43.3899 51.2851 42.8047 51.9065C42.2187 52.5288 41.2652 52.5288 40.6795 51.9066L27.1865 37.5734L29.3474 35.3585L32.2742 38.4649C32.4458 38.6471 32.6706 38.7381 32.8954 38.7381C33.1205 38.7381 33.3455 38.6468 33.5171 38.4645C33.8602 38.0998 33.86 37.5089 33.5166 37.1444L30.6083 34.0577C32.6753 31.7647 32.686 28.116 30.5929 25.8132C29.5565 24.6729 28.1597 24.0294 26.6599 24.0011C25.1642 23.9721 23.7437 24.563 22.6721 25.6618L22.5001 25.8374L22.3294 25.6624C21.2555 24.5628 19.8387 23.9706 18.339 24.0011C16.8391 24.0294 15.4428 24.6731 14.4079 25.8132C12.3142 28.1167 12.324 31.7655 14.3904 34.058L0.953564 48.3291C-0.317723 49.6793 -0.317723 51.8763 0.952773 53.2256C1.56526 53.8779 2.38322 54.2374 3.25603 54.2381H3.25832C3.93619 54.2381 4.58102 54.0207 5.12319 53.6185V67.3177C5.12319 68.7967 6.25623 70 7.6488 70H37.35C38.7426 70 39.8756 68.7966 39.8756 67.3177V53.6164C40.434 54.031 41.0878 54.2392 41.7421 54.2392C42.577 54.2392 43.412 53.9017 44.0476 53.2265C45.3173 51.8781 45.3177 49.6815 44.0475 48.329ZM15.6732 27.1093C16.3823 26.328 17.3402 25.8871 18.3704 25.8677C18.3941 25.8672 18.4176 25.867 18.4413 25.867C19.4451 25.867 20.3904 26.2701 21.1093 27.0062L21.8892 27.8053C22.2293 28.1539 22.7678 28.1543 23.1087 27.8064L23.892 27.006C24.6268 26.2526 25.5987 25.8481 26.629 25.8678C27.6595 25.8872 28.6181 26.3283 29.3285 27.1098C30.8005 28.7293 30.7566 31.3195 29.231 32.8837L22.4994 39.7833L15.768 32.8838C14.2429 31.3201 14.2002 28.7299 15.6732 27.1093ZM3.25823 52.3714C3.25788 52.3714 3.25752 52.3714 3.25717 52.3714C2.85439 52.3711 2.47797 52.2063 2.19646 51.9066C1.61052 51.2842 1.61052 50.2716 2.19646 49.6493L15.6515 35.3588L17.8134 37.5748L5.40601 50.7547C5.38914 50.7713 5.37288 50.7885 5.35732 50.8064L4.32175 51.9064C4.03954 52.2063 3.66189 52.3714 3.25823 52.3714ZM17.1232 54.6839C15.7204 54.6839 14.5791 53.4705 14.5791 51.979C14.5791 50.4875 15.7204 49.2742 17.1232 49.2742C18.5275 49.2742 19.6699 50.4875 19.6699 51.979C19.6699 53.4705 18.5274 54.6839 17.1232 54.6839ZM14.4706 55.5742C15.2021 56.185 16.123 56.5507 17.1232 56.5507C18.1245 56.5507 19.0463 56.1847 19.7783 55.5734C20.3043 55.8595 20.7889 56.2244 21.1293 56.7684C19.9153 57.3315 19.0645 58.6184 19.0645 60.1129C19.0645 60.65 19.1751 61.1601 19.372 61.6199C18.4608 62.2408 17.607 63.2722 17.607 65.1588V68.1335H12.6283V58.7342C12.6283 57.0335 13.347 56.189 14.4706 55.5742ZM27.8756 54.6839C26.4713 54.6839 25.3289 53.4705 25.3289 51.979C25.3289 50.4875 26.4713 49.2742 27.8756 49.2742C29.2798 49.2742 30.4223 50.4875 30.4223 51.979C30.4223 53.4705 29.2798 54.6839 27.8756 54.6839ZM25.2205 55.5734C25.9525 56.1847 26.8743 56.5507 27.8756 56.5507C28.8766 56.5507 29.7982 56.1849 30.5301 55.5739C31.654 56.1887 32.3729 57.0333 32.3729 58.7342V68.1333H27.3942V65.1586C27.3942 63.2719 26.5406 62.2408 25.6289 61.62C25.8261 61.1601 25.9369 60.65 25.9369 60.1127C25.9369 58.6182 25.0854 57.3314 23.8706 56.7682C24.2102 56.2244 24.6945 55.8596 25.2205 55.5734ZM22.4994 58.3315C23.4256 58.3315 24.1791 59.1305 24.1791 60.1128C24.1791 61.0965 23.4256 61.8968 22.4994 61.8968C21.5747 61.8968 20.8223 61.0965 20.8223 60.1128C20.8222 59.1305 21.5746 58.3315 22.4994 58.3315ZM20.499 63.0777C21.0628 63.5087 21.7535 63.7636 22.4994 63.7636C23.2459 63.7636 23.937 63.5088 24.5012 63.0778C25.2124 63.4995 25.6365 64.0644 25.6365 65.1586V68.1333H19.3648V65.1586C19.3648 64.0648 19.7885 63.4998 20.499 63.0777ZM37.35 68.1333H34.1307V58.7342C34.1307 56.202 32.9125 54.8865 31.6789 54.1167C31.9983 53.4784 32.18 52.751 32.18 51.979C32.18 49.4583 30.2491 47.4074 27.8756 47.4074C25.5021 47.4074 23.5711 49.4582 23.5711 51.979C23.5711 52.7511 23.753 53.4787 24.0724 54.1171C23.5145 54.4663 22.9478 54.9368 22.4998 55.5951C22.0511 54.9368 21.4843 54.4663 20.9263 54.1171C21.2457 53.4787 21.4276 52.7512 21.4276 51.9791C21.4276 49.4584 19.4966 47.4075 17.1231 47.4075C14.751 47.4075 12.8212 49.4583 12.8212 51.9791C12.8212 52.7511 13.0029 53.4786 13.3222 54.1169C12.0886 54.8867 10.8706 56.2022 10.8706 58.7342V68.1333H7.6488C7.23257 68.1333 6.88093 67.7598 6.88093 67.3178V51.8284L19.0784 38.8713L21.8891 41.752C22.0594 41.9265 22.2794 42.0138 22.4994 42.0138C22.7194 42.0138 22.9394 41.9265 23.1096 41.752L25.9216 38.87L38.1179 51.8258V67.3178C38.1179 67.7675 37.7734 68.1333 37.35 68.1333Z" fill="black"/>
<path d="M35.6861 41.705C35.3647 41.705 35.056 41.5173 34.9022 41.1909L34.8998 41.1856C34.6827 40.7245 34.8587 40.1637 35.2929 39.9332C35.7268 39.7025 36.255 39.8895 36.4721 40.3506C36.6892 40.8117 36.5143 41.3751 36.0802 41.6056C35.9534 41.673 35.8186 41.705 35.6861 41.705Z" fill="black"/>
</svg>
