<svg width="110" height="106" viewBox="0 0 110 106" fill="none" xmlns="http://www.w3.org/2000/svg">
<path opacity="0.3" d="M33.0338 1L1.0481 104.76H84.0111L109 52.8798L84.0111 1H33.0338Z" stroke="black" stroke-width="0.5"/>
<path d="M39.9494 67.4674L31.7957 23.4433C31.5334 22.0274 30.2993 21 28.8616 21H21.1157C19.6779 21 18.4443 22.0274 18.1815 23.4433L14.8511 41.4262L13.4373 38.6235C14.0398 38.2521 14.3576 37.5488 14.1987 36.8481L13.3033 32.891C13.189 32.3869 12.8555 31.9713 12.3886 31.7507C11.9206 31.5312 11.3877 31.538 10.927 31.771L10.1733 32.1523L7.71806 27.2839C7.49212 26.835 6.94622 26.655 6.49849 26.8823C6.0518 27.1086 5.87157 27.6553 6.09751 28.1037L8.55327 32.9721L7.79961 33.3534C7.33889 33.586 7.01686 34.0104 6.91558 34.5171C6.81585 35.0243 6.95089 35.5403 7.28903 35.9331L9.93853 39.0037C10.2642 39.3798 10.727 39.5811 11.1986 39.5811C11.4079 39.5811 11.6178 39.5312 11.8203 39.449L14.3047 44.3752L12.7719 52.6519V52.6524L10.0284 67.4669C9.86633 68.3429 10.099 69.2376 10.6683 69.9227C11.2365 70.6073 12.0728 71 12.9615 71H37.0163C37.9055 71 38.7412 70.6067 39.3095 69.9227C39.8787 69.2381 40.112 68.3434 39.9494 67.4674ZM8.78908 34.8901L11.5747 33.4804L12.4021 37.1357L11.2355 37.7267L8.78908 34.8901ZM19.9673 23.7752C20.0701 23.2207 20.5531 22.8181 21.1157 22.8181H28.8616C29.4246 22.8181 29.9077 23.2207 30.0105 23.7752L35.2223 51.9091H25.8968V41.909H28.6195C29.1213 41.909 29.5275 41.5022 29.5275 41.0002C29.5275 40.4982 29.1213 40.0909 28.6195 40.0909H25.8968V30.0908C25.8968 29.5888 25.4906 29.182 24.9889 29.182C24.4871 29.182 24.081 29.5888 24.081 30.0908V36.4548H21.3577C20.856 36.4548 20.4503 36.8616 20.4503 37.3636C20.4503 37.8656 20.856 38.2729 21.3577 38.2729H24.081V45.5456H21.3577C20.856 45.5456 20.4503 45.9524 20.4503 46.4549C20.4503 46.9569 20.856 47.3637 21.3577 47.3637H24.081V51.9091H20.1387L16.2015 44.1037L19.9673 23.7752ZM18.1047 51.9091H14.7555L15.6551 47.0526L18.1047 51.9091ZM37.9143 68.7606C37.692 69.0285 37.3638 69.1819 37.0163 69.1819H12.9615C12.614 69.1819 12.2857 69.0285 12.0634 68.7606C11.8411 68.4927 11.7497 68.1416 11.8136 67.7988L14.4195 53.7277H35.5578L38.1642 67.7982C38.2281 68.1416 38.1367 68.4922 37.9143 68.7606Z" fill="black"/>
</svg>
