<svg width="112" height="141" viewBox="0 0 112 141" fill="none" xmlns="http://www.w3.org/2000/svg">
<g opacity="0.4">
<path opacity="0.3" d="M35.0338 25L3.0481 128.76H86.0111L111 76.8798L86.0111 25H35.0338Z" stroke="#1E1E1E" stroke-width="0.5"/>
</g>
<path d="M21.23 56.63H4.95C5.68333 49.81 8.10333 44.2733 12.21 40.02C16.6833 35.4 22.88 33.09 30.8 33.09C39.3067 33.09 45.7233 35.2533 50.05 39.58C53.79 43.1733 55.66 48.16 55.66 54.54C55.66 58.5 54.67 61.8367 52.69 64.55C51.2967 66.53 49.4633 68.07 47.19 69.17C50.8567 70.49 53.6433 72.47 55.55 75.11C57.8233 78.19 58.96 82.04 58.96 86.66C58.96 93.3333 56.5033 98.9067 51.59 103.38C46.8967 107.633 40.4433 109.76 32.23 109.76C22.99 109.76 15.84 107.23 10.78 102.17C6.08667 97.4033 3.37333 91.3533 2.64 84.02H19.58C19.8733 87.4667 21.0467 90.2167 23.1 92.27C25.08 94.25 27.7933 95.24 31.24 95.24C34.32 95.24 36.7767 94.3967 38.61 92.71C40.59 90.8767 41.58 88.3833 41.58 85.23C41.58 82.2967 40.5167 79.95 38.39 78.19C36.41 76.65 33.4033 75.88 29.37 75.88H28.05V64.22H29.04C32.2667 64.22 34.7233 63.5233 36.41 62.13C38.2433 60.59 39.16 58.39 39.16 55.53C39.16 53.0367 38.3533 51.0567 36.74 49.59C35.1267 48.1233 33.0367 47.39 30.47 47.39C27.6833 47.39 25.4833 48.1967 23.87 49.81C22.2567 51.57 21.3767 53.8433 21.23 56.63Z" fill="url(#paint0_linear)"/>
<defs>
<linearGradient id="paint0_linear" x1="55.5093" y1="-5.97601e-05" x2="-1.85003" y2="0.91296" gradientUnits="userSpaceOnUse">
<stop stop-color="#FFF9C6"/>
<stop offset="1" stop-color="#FFD8AB"/>
</linearGradient>
</defs>
</svg>
