<svg width="112" height="141" viewBox="0 0 112 141" fill="none" xmlns="http://www.w3.org/2000/svg">
<g opacity="0.4">
<path opacity="0.3" d="M35.0338 25L3.0481 128.76H86.0111L111 76.8798L86.0111 25H35.0338Z" stroke="#1E1E1E" stroke-width="0.5"/>
</g>
<path d="M54.23 34.63V48.93H29.48L27.5 58.72C29.5533 58.3533 31.57 58.17 33.55 58.17C41.3967 58.17 47.63 60.5533 52.25 65.32C56.7233 69.7933 58.96 75.6967 58.96 83.03C58.96 90.6567 56.4667 96.9633 51.48 101.95C46.2733 107.083 38.8667 109.65 29.26 109.65C19.8733 109.65 11.7333 106.973 4.84 101.62L8.69 85.89C10.9633 88.4567 13.31 90.4733 15.73 91.94C19.03 94.0667 22.7333 95.13 26.84 95.13C31.3133 95.13 34.7967 94.14 37.29 92.16C40.15 89.96 41.58 86.88 41.58 82.92C41.58 79.4 40.3333 76.54 37.84 74.34C34.9067 71.7733 30.8367 70.49 25.63 70.49C20.35 70.49 15.3633 71.7733 10.67 74.34L18.15 34.63H54.23Z" fill="url(#paint0_linear)"/>
<defs>
<linearGradient id="paint0_linear" x1="55.5093" y1="-5.97601e-05" x2="-1.85003" y2="0.91296" gradientUnits="userSpaceOnUse">
<stop stop-color="#FFF9C6"/>
<stop offset="1" stop-color="#FFD8AB"/>
</linearGradient>
</defs>
</svg>
