<svg width="115" height="141" viewBox="0 0 115 141" fill="none" xmlns="http://www.w3.org/2000/svg">
<path opacity="0.3" d="M38.0338 25L6.0481 128.76H89.0111L114 76.8798L89.0111 25H38.0338Z" stroke="#1E1E1E" stroke-width="0.5"/>
<path d="M58.74 93.7V108H2.64L24.64 84.02C29.9933 78.0067 33.99 73.02 36.63 69.06C39.5633 64.3667 41.03 60.2233 41.03 56.63C41.03 53.55 40.0767 51.13 38.17 49.37C36.63 47.9767 34.3933 47.28 31.46 47.28C28.6 47.28 26.3633 48.16 24.75 49.92C22.6967 52.1933 21.67 55.2 21.67 58.94H4.73C5.39 51.3133 7.92 45.19 12.32 40.57C17.0867 35.51 23.8333 32.98 32.56 32.98C40.4067 32.98 46.75 35.29 51.59 39.91C56.1367 44.4567 58.41 50.3233 58.41 57.51C58.41 63.1567 56.5767 68.5467 52.91 73.68C50.71 76.76 46.7867 80.9767 41.14 86.33L33.44 93.7H58.74Z" fill="url(#paint0_linear)"/>
<defs>
<linearGradient id="paint0_linear" x1="55.5093" y1="-5.97601e-05" x2="-1.85003" y2="0.91296" gradientUnits="userSpaceOnUse">
<stop stop-color="#FFF9C6"/>
<stop offset="1" stop-color="#FFD8AB"/>
</linearGradient>
</defs>
</svg>
