<svg xmlns="http://www.w3.org/2000/svg">
<path d="M285.278 85.3055V504.489C285.278 512.042 291.161 513.511 294.103 513.302H339.492C349.578 513.302 352.52 504.07 352.73 499.455V369.167C352.73 352.551 367.019 350.915 374.164 352.173H546.263C554.837 352.173 554.038 360.146 552.567 364.132C546.894 435.885 467.463 509.525 446.03 520.225C428.883 528.785 432.161 536.799 435.943 539.737C439.305 546.87 447.669 564.409 454.225 577.501C460.781 590.593 471.246 587.991 475.658 585.054C580.053 529.666 620.861 414.695 628.215 364.132C633.259 320.326 630.317 288.394 628.215 277.904C618.129 143.966 516.845 66.0042 467.463 43.7652C450.316 34.7017 446.03 39.9887 446.03 43.7652L422.074 80.9001C415.014 98.0199 425.016 102.3 430.9 102.3C524.83 157.688 546.263 239.51 552.567 258.392C557.611 273.498 550.466 277.694 546.263 277.904H374.164C355 277.904 351.89 272.029 352.73 269.092V26.1418C352.73 6.50439 347.687 2.01446 345.166 2.22417C305.324 -1.80402 278.133 0.54576 269.518 2.22417C60.855 43.7649 7.2709 214.963 2.22769 269.092C-1.80687 312.395 0.546623 342.523 2.22769 352.173C39.4213 624.077 275.822 631 316.167 631C348.444 631 372.903 627.224 381.098 625.335C398.75 620.804 398.539 614.216 396.228 611.488L381.098 561.136C378.577 552.576 375.425 552.115 374.164 552.954C322.219 558.996 282.756 555.471 269.518 552.954C114.439 530.295 80.3974 385.532 75.9846 369.167C72.4544 356.076 83.3393 352.383 89.223 352.173H244.301C254.892 352.173 255.018 346.719 253.757 343.991V299.303C253.757 287.722 247.453 285.247 244.301 285.457C199.543 285.666 105.866 285.96 89.223 285.457C72.5804 284.953 73.463 274.337 75.9846 269.092C102.461 130.623 251.236 80.2702 269.518 76.4938C284.143 73.4726 286.118 81.1094 285.278 85.3055Z"/>
</svg>
