<svg width="14" height="23" viewBox="0 0 14 23" fill="none" xmlns="http://www.w3.org/2000/svg">
<path d="M10.3327 1.64027H3.61843C5.11843 1.64027 3.97557 2.43767 5.23686 2.43767H8.71429C9.97557 2.43767 9.11843 1.64027 10.3327 1.64027Z" fill="url(#paint0_linear)"/>
<path d="M11.8813 1H2.11865C1.50181 1 1 1.52873 1 2.17858V20.8214C1 21.4713 1.50181 22 2.11865 22H11.8813C12.4982 22 13 21.4713 13 20.8214V2.17858C13 1.52873 12.4982 1 11.8813 1ZM12.3898 20.8214C12.3898 21.1168 12.1617 21.3571 11.8813 21.3571H2.11865C1.83828 21.3571 1.61019 21.1168 1.61019 20.8214V19.5357H12.3898V20.8214ZM12.3898 19.5357H1.61019V4.10713H12.3898V19.5357ZM12.3898 4.10713H1.61019V2.17858C1.61019 1.88319 1.83828 1.64288 2.11865 1.64288H11.8813C12.1618 1.64288 12.3898 1.88319 12.3898 2.17858V4.10713Z" fill="url(#paint1_linear)"/>
<path d="M9.49154 20.425H4.88139C4.60055 20.425 4.37292 20.4176 4.37292 20.7134C4.37292 21.0093 4.60055 20.9821 4.88139 20.9821H9.49154C9.77238 20.9821 10 21.0093 10 20.7134C10 20.4176 9.77238 20.425 9.49154 20.425Z" fill="url(#paint2_linear)"/>
<path d="M1.61019 19.5357V20.8214C1.61019 21.1168 1.83828 21.3571 2.11865 21.3571H11.8813C12.1617 21.3571 12.3898 21.1168 12.3898 20.8214V19.5357M1.61019 19.5357H12.3898M1.61019 19.5357V4.10713M12.3898 19.5357V4.10713M1.61019 4.10713H12.3898M1.61019 4.10713V2.17858C1.61019 1.88319 1.83828 1.64288 2.11865 1.64288H11.8813C12.1618 1.64288 12.3898 1.88319 12.3898 2.17858V4.10713M10.3327 1.64027H3.61843C5.11843 1.64027 3.97557 2.43767 5.23686 2.43767H8.71429C9.97557 2.43767 9.11843 1.64027 10.3327 1.64027ZM11.8813 1H2.11865C1.50181 1 1 1.52873 1 2.17858V20.8214C1 21.4713 1.50181 22 2.11865 22H11.8813C12.4982 22 13 21.4713 13 20.8214V2.17858C13 1.52873 12.4982 1 11.8813 1ZM9.49154 20.425H4.88139C4.60055 20.425 4.37292 20.4176 4.37292 20.7134C4.37292 21.0093 4.60055 20.9821 4.88139 20.9821H9.49154C9.77238 20.9821 10 21.0093 10 20.7134C10 20.4176 9.77238 20.425 9.49154 20.425Z" stroke="url(#paint3_linear)" stroke-width="0.5"/>
<defs>
<linearGradient id="paint0_linear" x1="11.0926" y1="0.999991" x2="0.664927" y2="1.20262" gradientUnits="userSpaceOnUse">
<stop stop-color="#FFF9C6"/>
<stop offset="1" stop-color="#FFD8AB"/>
</linearGradient>
<linearGradient id="paint1_linear" x1="11.0926" y1="0.999991" x2="0.664927" y2="1.20262" gradientUnits="userSpaceOnUse">
<stop stop-color="#FFF9C6"/>
<stop offset="1" stop-color="#FFD8AB"/>
</linearGradient>
<linearGradient id="paint2_linear" x1="11.0926" y1="0.999991" x2="0.664927" y2="1.20262" gradientUnits="userSpaceOnUse">
<stop stop-color="#FFF9C6"/>
<stop offset="1" stop-color="#FFD8AB"/>
</linearGradient>
<linearGradient id="paint3_linear" x1="11.0926" y1="0.999991" x2="0.664927" y2="1.20262" gradientUnits="userSpaceOnUse">
<stop stop-color="#FFF9C6"/>
<stop offset="1" stop-color="#FFD8AB"/>
</linearGradient>
</defs>
</svg>
